<svg xmlns:xlink="http://www.w3.org/1999/xlink" xmlns="http://www.w3.org/2000/svg" width="32" height="32" viewBox="0 0 25 22" aria-labelledby="tiktokSvg" role="img"><title id="tiktokSvg">Visit us on TikTok</title><path d="M4.55149 18.9739L4.61872 19.1671C4.61032 19.1461 4.58511 19.0789 4.55149 18.9739ZM7.27824 14.5666C7.40009 13.5203 7.81183 12.9364 8.5849 12.3356C9.69409 11.5247 11.0763 11.9827 11.0763 11.9827V9.25587C11.4125 9.24747 11.7486 9.26848 12.0805 9.3189V12.8271C12.0805 12.8271 10.6983 12.3692 9.58905 13.18C8.81599 13.7809 8.40425 14.3649 8.2824 15.4111C8.27819 15.9783 8.37903 16.7219 8.84959 17.3605C8.73195 17.2975 8.61431 17.2261 8.49247 17.1462C7.46311 16.4236 7.27405 15.3354 7.27824 14.5666ZM17.7987 4.21411C17.0383 3.3444 16.7484 2.46209 16.6434 1.84448H17.6013C17.6013 1.84448 17.4122 3.46625 18.8029 5.0586L18.8238 5.07961C18.4458 4.83593 18.1012 4.54182 17.7987 4.21411ZM22.4161 6.68457V10.1214C22.4161 10.1214 21.1935 10.071 20.286 9.83148C19.0214 9.49536 18.2105 8.97857 18.2105 8.97857C18.2105 8.97857 17.6474 8.60885 17.6055 8.58364V15.6841C17.6055 16.0791 17.5005 17.0664 17.1853 17.8899C16.7735 18.9654 16.1349 19.6756 16.0173 19.8184C16.0173 19.8184 15.24 20.7763 13.8746 21.4191C12.6436 21.999 11.5595 21.9863 11.2361 21.999C11.2361 21.999 9.36638 22.0745 7.68158 20.936C7.31606 20.6839 6.97573 20.3982 6.66483 20.0831L6.67323 20.0914C8.35802 21.2342 10.2277 21.1545 10.2277 21.1545C10.5512 21.1419 11.6352 21.1545 12.8662 20.5746C14.2317 19.9318 15.0089 18.9739 15.0089 18.9739C15.1266 18.831 15.7652 18.121 16.177 17.0454C16.4921 16.2219 16.5971 15.2345 16.5971 14.8397V7.74334C16.6434 7.76855 17.2021 8.13828 17.2021 8.13828C17.2021 8.13828 18.013 8.65507 19.2776 8.99119C20.1851 9.23066 21.4078 9.28108 21.4078 9.28108V6.58795C21.8279 6.68457 22.185 6.70978 22.4161 6.68457Z" fill="#006AFF" fill-opacity="0.6"></path><path d="M21.4078 6.58374V9.27689C21.4078 9.27689 20.1851 9.22647 19.2776 8.98698C18.013 8.65086 17.2021 8.13409 17.2021 8.13409C17.2021 8.13409 16.6391 7.76436 16.5971 7.73915V14.8397C16.5971 15.2345 16.4921 16.2219 16.177 17.0454C15.7652 18.121 15.1265 18.831 15.0089 18.9739C15.0089 18.9739 14.2317 19.9318 12.8662 20.5746C11.6352 21.1545 10.5512 21.1419 10.2277 21.1545C10.2277 21.1545 8.35801 21.2301 6.67323 20.0914L6.66483 20.0831C6.48836 19.9024 6.32031 19.7134 6.16485 19.5159C5.62706 18.831 5.29934 18.0243 5.21531 17.7933V17.789C5.08087 17.39 4.80357 16.4236 4.84139 15.4951C4.90861 13.8523 5.46321 12.8398 5.61025 12.5877C5.99679 11.8986 6.50517 11.281 7.10178 10.7642C7.63116 10.3188 8.23197 9.96172 8.8748 9.71382C9.57224 9.41972 10.3201 9.26427 11.0763 9.25166V11.9785C11.0763 11.9785 9.69408 11.5204 8.58489 12.3314C7.81182 12.9321 7.40008 13.5162 7.27823 14.5623C7.27403 15.3312 7.46309 16.4194 8.49665 17.1462C8.6185 17.2261 8.73614 17.2975 8.85378 17.3605C9.03445 17.6042 9.25292 17.8185 9.50501 17.995C10.5176 18.6629 11.362 18.7092 12.4461 18.2764C13.1687 17.9865 13.7107 17.3353 13.9628 16.6084C14.1225 16.1547 14.1182 15.7009 14.1182 15.2304V1.84448H16.6391C16.7442 2.46209 17.0299 3.3444 17.7945 4.21411C18.1012 4.54182 18.4458 4.83593 18.8197 5.07961C18.929 5.20145 19.4961 5.78965 20.2272 6.15519C20.6011 6.34425 21.0003 6.4871 21.4078 6.58374Z" fill="#006AFF"></path><path d="M4.21118 16.9614L4.27419 17.1421C4.26579 17.1211 4.24058 17.058 4.21118 16.9614Z" fill="#006AFF" fill-opacity="0.2"></path><path d="M8.87479 9.71804C8.22778 9.96592 7.63116 10.323 7.10179 10.7684C6.50097 11.2852 5.99679 11.907 5.61026 12.596C5.46321 12.8481 4.90862 13.8564 4.84138 15.5034C4.80358 16.4362 5.08508 17.3983 5.21532 17.7975V17.8017C5.29935 18.0286 5.62706 18.8395 6.16485 19.5243C6.3203 19.7217 6.48836 19.9109 6.66483 20.0914C6.09343 19.6966 5.58926 19.2218 5.1565 18.6797C4.62292 18.0033 4.29519 17.2008 4.21116 16.9655V16.9572C4.07673 16.558 3.79522 15.5918 3.83724 14.659C3.90446 13.0162 4.45906 12.0036 4.60611 11.7515C4.99264 11.0625 5.49681 10.4407 6.09763 9.92392C6.62701 9.47856 7.22783 9.12143 7.87065 8.87355C8.27399 8.70549 8.69414 8.58364 9.12268 8.50382C9.76978 8.39037 10.4294 8.38197 11.0806 8.4744V9.25588C10.3201 9.26849 9.57225 9.42393 8.8748 9.71804H8.87479Z" fill="#006AFF" fill-opacity="0.2"></path><path d="M16.6434 1.84449H14.1225V15.2304C14.1225 15.7009 14.1225 16.1547 13.9669 16.6084C13.7107 17.3311 13.1687 17.9865 12.4502 18.2764C11.3663 18.7133 10.5176 18.6629 9.50921 17.995C9.25713 17.8226 9.03865 17.6085 8.85799 17.3647C9.71929 17.8226 10.4881 17.8143 11.4419 17.4319C12.1645 17.1421 12.7065 16.4866 12.9586 15.764C13.1183 15.3102 13.1141 14.8565 13.1141 14.3859V1H16.5971C16.593 1 16.555 1.33191 16.6434 1.84449ZM21.4078 5.84009V6.58374C21.0003 6.4871 20.6011 6.34427 20.2272 6.15519C19.5004 5.79387 18.9331 5.20147 18.8197 5.07962C18.9499 5.16365 19.0802 5.23927 19.2188 5.31071C20.1096 5.75185 20.9793 5.8863 21.4078 5.84009Z" fill="#006AFF" fill-opacity="0.2"></path></svg>